<?xml version="1.0" standalone="no"?>
<!DOCTYPE svg PUBLIC "-//W3C//DTD SVG 20010904//EN"
 "http://www.w3.org/TR/2001/REC-SVG-20010904/DTD/svg10.dtd">
<svg version="1.0" xmlns="http://www.w3.org/2000/svg"
 width="500.000000pt" height="500.000000pt" viewBox="0 0 500.000000 500.000000"
 preserveAspectRatio="xMidYMid meet">
<metadata>
Created by potrace 1.16, written by Peter Selinger 2001-2019
</metadata>
<g transform="translate(0.000000,500.000000) scale(0.100000,-0.100000)"
fill="#000000" stroke="none">
<path d="M2265 3621 c-3 -16 -13 -35 -21 -41 -7 -7 -11 -17 -7 -24 15 -23 11
-43 -13 -69 -14 -15 -24 -33 -22 -40 1 -6 -3 -22 -10 -35 -11 -20 -10 -23 10
-32 23 -9 23 -9 1 -9 -29 -1 -40 -21 -20 -36 18 -13 24 -31 8 -20 -5 3 -16 -4
-25 -16 -13 -19 -18 -20 -31 -9 -11 9 -14 22 -9 46 4 21 2 34 -4 34 -7 0 -9
14 -5 35 3 21 1 41 -7 50 -7 8 -10 25 -6 40 5 20 3 25 -14 25 -20 0 -21 -2
-24 -70 0 -17 -8 -35 -16 -40 -8 -5 -12 -10 -7 -10 4 0 0 -14 -8 -30 -15 -28
-19 -30 -53 -24 -36 6 -69 24 -44 24 15 0 11 21 -6 35 -7 6 -16 39 -20 75 -6
55 -10 65 -27 68 -16 2 -20 -4 -22 -32 -1 -19 -8 -48 -17 -64 -10 -19 -14 -42
-10 -61 5 -26 3 -31 -12 -32 -15 0 -14 -2 5 -10 13 -5 21 -12 18 -15 -9 -9
-115 63 -127 86 -6 11 -15 20 -21 20 -5 0 -23 10 -39 22 -23 16 -47 22 -107
25 l-78 4 -72 -70 c-74 -72 -104 -88 -146 -77 -30 7 -80 -18 -149 -76 -61 -52
-142 -108 -156 -108 -10 0 -32 -44 -32 -64 0 -18 -30 -43 -63 -51 -15 -4 -44
-27 -64 -51 -19 -24 -46 -47 -59 -50 -23 -6 -144 -134 -144 -152 0 -5 -14 -23
-31 -40 -21 -20 -29 -37 -25 -47 8 -23 46 -11 71 23 11 15 57 65 102 112 45
47 96 102 113 122 36 43 86 58 128 39 28 -13 180 -111 251 -161 59 -43 71 -46
64 -21 -3 12 -9 21 -13 21 -4 0 -29 17 -56 38 -27 20 -66 46 -87 56 -24 13
-36 25 -32 34 3 8 -14 32 -40 57 -25 25 -45 49 -45 54 0 10 79 81 91 81 4 0
35 34 69 75 52 63 65 75 83 69 33 -10 33 -12 -2 -45 -33 -30 -33 -31 -26 -87
5 -31 8 -81 9 -110 1 -41 6 -57 20 -68 15 -10 19 -24 18 -52 -2 -30 5 -50 30
-87 18 -27 39 -51 46 -53 20 -6 14 37 -10 71 -12 17 -22 47 -23 67 0 23 -9 44
-23 58 -18 18 -20 26 -11 45 9 19 7 31 -5 55 -27 53 -21 103 18 141 l34 33 33
-18 c19 -9 64 -45 101 -79 51 -47 86 -70 146 -94 43 -17 84 -31 90 -31 24 0
11 17 -25 34 -58 27 -133 77 -133 88 0 16 -91 118 -106 118 -8 0 -14 7 -14 15
0 8 5 15 10 15 20 0 60 49 60 72 0 35 54 61 108 52 l43 -7 -19 -21 c-49 -53
-48 -97 2 -116 14 -5 26 -20 29 -37 8 -34 20 -49 74 -91 30 -23 46 -45 53 -72
16 -60 34 -63 26 -4 -6 43 -14 56 -66 104 -32 31 -61 67 -64 82 -4 16 -17 32
-34 40 -36 18 -39 48 -7 81 37 36 58 25 166 -85 31 -32 61 -58 66 -58 6 0 13
-6 16 -13 3 -7 24 -26 48 -42 24 -17 53 -40 64 -53 16 -19 25 -21 44 -14 24 8
24 9 -17 38 -22 16 -44 40 -47 53 -7 27 -33 56 -42 47 -8 -7 -33 26 -27 36 9
14 93 9 111 -6 10 -8 64 -49 121 -91 56 -42 102 -81 102 -86 0 -5 -9 -27 -19
-47 -11 -21 -27 -64 -36 -97 -21 -76 -84 -264 -96 -287 -12 -22 -58 -34 -195
-53 -160 -22 -214 -46 -198 -89 14 -36 141 -88 260 -106 94 -15 108 -24 75
-49 l-24 -18 22 -22 c11 -11 26 -21 32 -21 8 0 8 -4 0 -14 -21 -25 3 -53 56
-64 71 -16 377 -26 468 -16 l80 8 -180 13 c-375 27 -397 30 -390 55 4 10 0 30
-9 43 -10 15 -12 26 -6 30 15 9 12 41 -5 58 -8 9 -45 18 -85 22 -107 11 -167
30 -201 63 -35 34 -31 52 10 52 16 0 48 7 71 15 23 8 66 15 95 15 147 0 147 0
246 331 16 52 35 91 60 120 l36 42 132 0 c73 0 137 -5 142 -10 5 -5 1 -29 -11
-61 -22 -59 -40 -257 -33 -364 l5 -67 -41 -28 c-22 -15 -40 -36 -41 -45 0 -36
55 -50 234 -59 94 -4 181 -11 194 -15 26 -7 29 -39 7 -68 -8 -11 -15 -23 -15
-28 0 -19 46 -47 89 -53 111 -14 663 -19 741 -6 32 5 -18 9 -165 14 -402 13
-617 25 -626 34 -7 7 -1 23 15 48 31 46 32 56 5 81 -19 17 -43 20 -208 25
-102 3 -196 10 -209 15 l-23 10 30 28 30 29 0 142 c0 126 4 177 16 250 9 49
45 149 69 190 24 41 100 105 125 105 5 0 14 8 20 17 5 10 12 16 14 13 5 -5 -4
-38 -39 -144 -23 -70 -6 -82 46 -31 43 42 60 84 60 150 1 66 65 175 104 175 8
0 19 7 26 15 18 21 23 19 44 -16 18 -31 18 -31 -9 -81 -24 -44 -25 -51 -12
-66 15 -17 21 -35 18 -58 0 -6 -27 -29 -58 -50 -61 -40 -55 -60 9 -29 69 33
77 45 67 105 -7 43 -5 59 7 78 15 23 16 39 11 117 -2 28 1 31 43 41 34 9 52 8
75 -1 23 -9 134 -86 204 -141 2 -2 -4 -19 -13 -38 -9 -19 -16 -37 -16 -41 0
-4 -21 -31 -46 -61 -57 -67 -39 -71 43 -10 87 65 118 79 146 65 45 -24 47 -28
21 -66 -13 -20 -24 -41 -24 -47 0 -6 -16 -29 -35 -51 -20 -22 -38 -49 -41 -62
-3 -12 -17 -29 -30 -38 -35 -23 -30 -39 16 -52 42 -11 50 -4 31 26 -5 8 -5 19
0 25 4 6 22 27 38 46 16 20 41 62 55 93 14 32 32 60 40 63 10 4 40 -16 84 -55
38 -34 74 -61 81 -61 18 0 71 -42 71 -57 0 -7 -9 -13 -19 -13 -27 0 -51 -10
-51 -21 0 -9 -32 -60 -124 -201 -32 -49 -67 -68 -128 -68 -26 0 -37 -13 -20
-24 4 -2 38 -6 75 -8 64 -2 68 -1 102 32 19 19 35 39 35 45 0 23 154 205 173
205 4 0 6 -17 6 -37 0 -21 0 -56 1 -78 2 -35 -7 -71 -36 -140 -7 -18 -6 -18 9
-6 14 11 17 11 17 -1 0 -13 58 -48 80 -48 17 0 11 28 -7 35 -10 3 -28 14 -40
24 l-22 18 21 43 c18 36 20 47 10 74 -7 18 -12 49 -12 69 0 41 23 60 68 55 22
-2 30 -12 45 -53 42 -110 43 -111 89 -124 52 -15 87 -36 207 -122 92 -66 122
-76 135 -42 8 19 -9 32 -99 79 -126 66 -219 138 -285 222 -23 29 -66 69 -97
89 -48 30 -59 34 -80 24 -20 -9 -27 -8 -41 8 -9 10 -51 44 -92 75 -41 31 -106
81 -145 111 -38 30 -76 55 -82 55 -7 0 -13 6 -13 14 0 8 -22 28 -50 45 -27 17
-87 59 -133 94 -98 75 -153 93 -247 82 -37 -4 -60 -12 -60 -19 0 -7 -11 -18
-25 -24 -35 -17 -68 -30 -84 -34 -8 -2 -22 -24 -31 -48 -29 -74 -70 -80 -74
-12 -1 17 -4 34 -8 38 -4 3 -5 26 -1 49 4 33 2 43 -11 48 -13 5 -16 -1 -18
-26 -2 -50 -3 -53 -14 -68 -6 -8 -11 -21 -11 -29 0 -8 -8 -40 -17 -71 -9 -31
-15 -61 -14 -67 3 -10 -1 -12 -26 -12 -13 0 -14 9 -18 87 0 18 -7 34 -14 37
-10 4 -11 12 -3 33 6 18 6 46 0 76 -5 27 -6 57 -4 68 4 15 2 18 -11 13 -9 -3
-17 -18 -18 -33 -1 -14 -2 -35 -3 -46 0 -11 -5 -36 -9 -55 -5 -19 -10 -42 -11
-50 -1 -8 -7 -28 -14 -44 -6 -16 -9 -31 -6 -34 3 -3 -1 -12 -9 -21 -8 -9 -15
-19 -15 -23 -1 -5 -3 -8 -6 -8 -3 0 -10 0 -16 0 -5 0 -7 5 -4 11 4 5 -1 19
-10 29 -15 17 -15 20 0 44 17 25 17 26 -4 26 -23 0 -27 10 -10 27 8 8 8 13 0
17 -6 4 -11 18 -11 30 0 26 -24 51 -38 42 -6 -3 -9 -25 -8 -48 1 -24 -1 -51
-6 -60 -5 -10 -4 -18 3 -20 6 -2 1 -14 -10 -27 -12 -13 -22 -28 -22 -33 -3
-19 -5 -24 -12 -35 -10 -16 -37 -17 -37 -2 0 7 -8 17 -17 24 -16 12 -16 16 -3
41 11 21 12 28 3 31 -9 3 -8 11 3 29 13 19 14 27 4 39 -7 8 -9 15 -5 15 5 0 1
8 -9 18 -13 16 -15 32 -11 90 5 59 3 72 -9 72 -8 0 -17 -13 -21 -29z"/>
<path d="M2610 2631 c-13 -9 -13 -11 0 -15 15 -5 195 -22 324 -31 39 -2 78
-11 93 -20 20 -13 42 -15 116 -11 264 14 320 13 422 -10 104 -23 191 -28 655
-39 124 -3 236 -7 250 -8 19 -1 26 3 28 21 3 22 3 22 -135 23 -564 4 -682 10
-788 38 -22 6 -120 13 -217 17 -160 6 -178 5 -184 -9 -9 -24 -48 -21 -98 7
-44 24 -38 24 -351 41 -60 4 -106 2 -115 -4z"/>
<path d="M506 2622 c-3 -6 4 -17 16 -24 18 -10 107 -13 383 -14 257 0 370 -4
396 -12 27 -10 48 -10 85 -2 26 6 65 8 85 5 23 -4 47 -2 61 6 23 13 23 13 -12
23 -19 5 -91 10 -160 11 -69 1 -287 5 -486 10 -261 6 -363 5 -368 -3z"/>
<path d="M2055 2575 c-5 -2 -40 -6 -77 -10 -36 -3 -74 -12 -85 -20 -21 -16
-26 -14 128 -40 116 -20 126 -25 108 -53 -10 -17 -10 -23 0 -36 17 -20 31 -12
24 14 -3 12 1 22 11 26 19 7 21 30 4 40 -6 4 -25 11 -42 15 -21 5 -7 7 45 6
42 -1 75 -5 72 -9 -2 -5 3 -8 13 -8 16 0 16 -11 0 -51 -5 -12 0 -18 16 -23 33
-8 284 -20 277 -12 -8 9 -167 36 -216 36 l-42 0 6 34 c5 33 4 35 -36 46 -54
14 -75 15 -207 5 -73 -5 -113 -4 -117 3 -4 6 17 12 56 16 34 4 69 11 77 16 15
9 6 12 -15 5z"/>
<path d="M1015 2511 c-60 -3 -116 -10 -123 -14 -28 -19 5 -26 121 -27 67 -1
200 -2 295 -3 133 -2 172 1 172 10 0 10 -21 13 -77 12 -43 0 -89 4 -103 9 -38
15 -160 20 -285 13z"/>
<path d="M3375 2478 c-118 -34 -117 -36 20 -37 72 -1 169 -2 217 -4 54 -1 88
2 87 8 0 6 -12 9 -26 8 -15 -1 -32 2 -37 6 -6 5 -30 12 -53 16 -24 4 -45 11
-49 16 -9 15 -84 9 -159 -13z"/>
<path d="M1562 2391 c-140 -31 -127 -37 88 -45 85 -3 170 -9 188 -12 20 -4 32
-2 32 4 0 6 -17 14 -37 18 -21 4 -42 10 -48 14 -8 7 -133 42 -138 39 -1 0 -39
-9 -85 -18z"/>
<path d="M3180 2192 c0 -5 59 -12 131 -15 121 -5 163 -13 132 -24 -16 -6 -17
-29 -2 -38 36 -23 140 -36 227 -30 151 11 163 23 22 24 -138 1 -192 17 -198
57 -2 17 -12 23 -49 28 -68 9 -263 7 -263 -2z"/>
<path d="M1830 1800 c0 -147 4 -230 10 -230 6 0 10 28 10 64 0 45 4 67 16 76
13 12 26 2 92 -63 44 -43 86 -77 97 -77 14 0 -4 24 -68 88 l-87 87 82 75 c44
41 76 76 69 78 -6 2 -53 -35 -104 -82 l-92 -85 -3 150 c-1 88 -6 149 -12 149
-6 0 -10 -87 -10 -230z"/>
<path d="M920 1784 l0 -216 108 3 c91 4 113 8 145 27 104 65 128 243 45 338
-49 56 -74 64 -193 64 l-105 0 0 -216z m241 173 c100 -66 106 -249 10 -329
-35 -30 -88 -41 -171 -36 l-55 3 -3 193 -2 192 93 0 c81 0 99 -3 128 -23z"/>
<path d="M1549 1895 c-33 -18 -52 -66 -39 -100 11 -30 45 -53 106 -71 59 -18
84 -39 84 -74 0 -81 -138 -92 -175 -15 -16 35 -35 47 -35 23 0 -32 41 -77 79
-89 145 -43 226 111 86 164 -104 39 -120 50 -123 83 -4 38 35 74 78 74 31 0
76 -31 85 -60 8 -25 25 -26 25 -2 -1 21 -28 56 -57 71 -30 15 -82 13 -114 -4z"/>
<path d="M2221 1892 c-68 -34 -99 -113 -79 -205 34 -164 256 -168 299 -7 41
153 -90 279 -220 212z m130 -17 c46 -24 69 -70 69 -140 0 -74 -25 -120 -77
-142 -124 -51 -225 88 -163 225 30 65 105 90 171 57z"/>
<path d="M2622 1895 c-18 -8 -36 -24 -42 -37 -8 -21 -9 -20 -9 10 -1 17 -5 32
-11 32 -6 0 -10 -62 -10 -165 0 -103 4 -165 10 -165 6 0 10 43 10 110 0 73 5
122 14 145 24 57 105 83 153 50 32 -22 43 -75 43 -197 0 -71 4 -108 11 -108 7
0 9 45 7 141 l-3 141 -33 29 c-37 33 -85 38 -140 14z"/>
<path d="M2994 1891 c-18 -11 -34 -25 -37 -33 -3 -7 -6 -1 -6 15 -1 17 -6 27
-16 27 -13 0 -15 -25 -15 -165 0 -140 2 -165 15 -165 12 0 15 20 15 119 0 106
2 121 23 152 42 62 138 63 167 1 7 -15 15 -82 18 -149 2 -68 9 -123 13 -123 5
0 9 55 9 123 0 135 -14 181 -60 204 -36 18 -90 16 -126 -6z"/>
<path d="M3361 1892 c-66 -33 -98 -112 -82 -199 20 -105 115 -160 201 -116 40
21 88 85 69 92 -7 2 -15 -2 -17 -9 -3 -7 -16 -26 -31 -42 -54 -60 -154 -40
-187 37 -31 74 -30 75 116 75 l130 0 0 35 c0 109 -105 176 -199 127z m124 -24
c15 -12 34 -36 41 -54 27 -64 27 -64 -106 -64 -133 0 -133 0 -106 65 29 68
117 95 171 53z"/>
<path d="M3720 1888 c-52 -36 -73 -71 -78 -131 -11 -133 77 -221 188 -188 39
12 90 61 90 87 0 23 -20 16 -30 -11 -11 -29 -65 -65 -98 -65 -72 0 -122 64
-122 156 0 68 25 118 70 141 56 28 128 6 150 -47 13 -32 30 -40 30 -15 0 27
-33 67 -67 81 -47 20 -96 17 -133 -8z"/>
</g>
</svg>
