<?xml version="1.0" standalone="no"?>
<!DOCTYPE svg PUBLIC "-//W3C//DTD SVG 20010904//EN"
 "http://www.w3.org/TR/2001/REC-SVG-20010904/DTD/svg10.dtd">
<svg version="1.0" xmlns="http://www.w3.org/2000/svg"
 width="300.000000pt" height="300.000000pt" viewBox="0 0 300.000000 300.000000"
 preserveAspectRatio="xMidYMid meet">
<metadata>
Created by potrace 1.10, written by Peter Selinger 2001-2011
</metadata>
<g transform="translate(0.000000,300.000000) scale(0.100000,-0.100000)"
fill="#000000" stroke="none">
<path d="M1390 2311 c0 -5 -3 -16 -6 -25 -4 -11 -1 -16 10 -16 10 0 16 9 16
25 0 14 -4 25 -10 25 -5 0 -10 -4 -10 -9z"/>
<path d="M1310 2286 c0 -14 5 -26 10 -26 6 0 10 9 10 19 0 11 -4 23 -10 26 -6
4 -10 -5 -10 -19z"/>
<path d="M1469 2289 c-7 -14 -7 -25 -1 -31 11 -11 21 1 27 32 5 26 -11 26 -26
-1z"/>
<path d="M1227 2284 c-9 -10 4 -34 19 -34 8 0 14 4 14 9 0 12 -26 32 -33 25z"/>
<path d="M1540 2260 c-9 -16 -8 -20 5 -20 8 0 15 2 15 4 0 2 3 11 6 20 9 23
-13 20 -26 -4z"/>
<path d="M1157 2243 c-9 -15 9 -35 28 -31 16 3 15 5 -3 21 -11 10 -22 14 -25
10z"/>
<path d="M1601 2236 c-9 -11 -9 -16 0 -21 10 -7 28 10 29 28 0 12 -17 8 -29
-7z"/>
<path d="M1653 2199 c-17 -17 -5 -43 13 -28 15 12 19 39 6 39 -4 0 -13 -5 -19
-11z"/>
<path d="M1098 2178 c12 -12 24 -19 28 -15 10 10 -16 37 -34 37 -13 0 -12 -4
6 -22z"/>
<path d="M1356 2170 c-8 -17 -12 -38 -9 -46 3 -8 -1 -22 -9 -32 -24 -27 -28
-60 -9 -65 11 -3 9 -5 -6 -6 -24 -1 -33 -21 -10 -21 8 0 8 -3 1 -8 -6 -4 -13
-15 -17 -24 -3 -10 -12 -18 -19 -17 -10 0 -10 2 0 6 6 2 9 10 5 16 -8 12 -11
39 -15 108 -3 41 -28 44 -28 3 0 -44 -21 -74 -52 -74 -18 0 -27 4 -23 10 4 6
2 17 -4 24 -6 7 -12 28 -15 47 -2 19 -9 35 -17 37 -13 2 -16 -8 -20 -85 -1
-13 -6 -23 -13 -23 -6 0 -4 -4 4 -10 8 -5 12 -11 9 -15 -3 -3 -18 6 -32 19
-67 62 -96 78 -144 79 -44 2 -52 -2 -98 -46 -40 -38 -55 -47 -77 -43 -17 4
-36 -2 -57 -17 -16 -12 -57 -41 -90 -65 -34 -23 -61 -49 -61 -57 0 -8 -18 -26
-40 -40 -22 -14 -40 -30 -40 -35 0 -5 -12 -16 -28 -24 -27 -14 -122 -127 -122
-146 0 -17 19 -11 38 12 38 50 172 178 185 178 8 0 58 -29 112 -65 54 -36 101
-63 104 -60 7 8 -45 51 -86 71 -18 9 -30 20 -28 25 3 4 -8 20 -24 35 l-30 27
69 68 c38 38 77 69 86 69 15 0 15 -3 -4 -23 -19 -20 -21 -32 -17 -87 2 -35 9
-68 15 -74 5 -5 10 -19 10 -31 0 -24 36 -85 50 -85 16 0 12 18 -11 49 -12 16
-18 34 -14 40 4 7 1 19 -6 27 -7 8 -13 27 -14 42 -2 15 -5 39 -9 53 -4 18 0
34 13 50 16 20 21 21 47 11 16 -7 47 -31 68 -52 22 -22 51 -43 65 -47 14 -3
31 -9 36 -13 17 -12 45 -20 45 -12 0 4 -20 18 -45 31 -24 13 -59 43 -77 67
-18 24 -39 44 -45 44 -20 0 -15 18 7 30 11 6 20 19 20 30 0 23 29 41 64 38 30
-3 33 -10 11 -28 -21 -18 -19 -47 5 -60 11 -6 20 -17 20 -24 0 -7 18 -31 40
-54 22 -22 40 -48 40 -56 0 -9 5 -16 10 -16 21 0 -3 56 -36 85 -19 17 -34 35
-34 42 0 7 -11 23 -25 35 -23 22 -24 25 -9 46 l15 22 32 -22 c18 -12 43 -33
57 -48 47 -49 128 -110 145 -110 13 0 10 7 -14 33 -18 17 -41 42 -53 55 l-21
22 30 0 c26 0 115 -54 166 -100 7 -6 -72 -263 -86 -277 -4 -3 -52 -14 -108
-24 -95 -17 -129 -30 -129 -50 0 -19 67 -49 143 -66 42 -9 77 -20 77 -25 0 -4
-4 -8 -10 -8 -5 0 -10 -7 -10 -15 0 -8 6 -15 14 -15 9 0 12 -7 9 -20 -4 -14 1
-22 20 -29 38 -15 298 -25 327 -13 21 9 12 11 -50 12 -41 1 -91 3 -110 6 -19
3 -42 5 -50 5 -51 0 -119 12 -115 20 4 5 3 15 -2 22 -4 6 -8 23 -8 37 0 22 -6
26 -75 40 -72 14 -131 42 -118 56 7 6 38 12 113 20 99 11 101 13 141 143 47
152 57 162 150 160 40 -1 77 -5 82 -8 7 -4 5 -26 -4 -61 -8 -30 -14 -95 -14
-144 0 -86 -1 -91 -27 -112 -43 -35 -21 -45 123 -56 71 -5 130 -10 131 -12 1
-1 -3 -16 -9 -34 -15 -38 -10 -43 49 -53 70 -11 465 -11 458 0 -3 6 -92 10
-203 10 -207 1 -292 8 -292 23 0 5 7 19 15 32 25 38 -1 50 -119 54 -55 1 -112
5 -125 8 -23 5 -23 5 -5 26 16 17 19 39 21 130 3 174 24 224 130 308 20 17 20
12 0 -50 -11 -33 -17 -63 -13 -67 4 -4 18 4 32 18 18 18 27 42 33 80 8 60 32
101 70 119 37 17 54 -18 27 -55 -10 -14 -11 -25 -2 -47 9 -24 8 -31 -5 -38 -9
-5 -27 -19 -40 -30 l-24 -21 25 7 c53 15 70 34 70 78 0 71 5 124 11 131 20 19
69 5 125 -35 32 -24 60 -44 62 -45 4 -3 -20 -47 -45 -82 -13 -17 -23 -34 -23
-37 0 -4 26 12 59 35 50 35 61 40 80 30 27 -15 26 -18 -9 -66 -16 -22 -34 -50
-40 -63 -5 -12 -17 -25 -25 -28 -23 -9 -18 -18 15 -31 30 -11 39 -6 20 13 -7
7 0 22 20 44 16 19 29 40 30 45 0 6 7 21 16 33 l15 23 41 -33 c22 -18 51 -40
66 -48 29 -18 44 -47 19 -37 -12 4 -30 -16 -69 -78 -48 -77 -57 -85 -90 -91
-52 -9 -48 -24 7 -24 45 0 77 18 86 47 6 18 92 121 107 127 8 4 10 1 6 -6 -4
-6 -6 -29 -6 -50 1 -21 -4 -54 -12 -72 -14 -33 -14 -33 21 -50 44 -21 57 -11
21 15 -24 18 -25 22 -13 45 10 19 10 34 2 60 -9 29 -8 38 6 52 24 23 45 8 66
-48 12 -32 23 -45 42 -51 14 -3 60 -30 101 -58 42 -28 82 -51 91 -51 34 0 23
18 -31 50 -101 59 -134 84 -171 128 -47 56 -105 94 -120 79 -8 -8 -14 -7 -23
4 -7 8 -31 28 -52 45 -51 37 -125 95 -151 116 -117 96 -160 120 -217 126 -42
3 -63 1 -76 -10 -9 -7 -30 -20 -46 -28 -15 -8 -32 -24 -37 -36 -9 -25 -27 -39
-37 -29 -4 3 -8 25 -9 48 -2 57 -2 57 -11 57 -8 0 -32 -96 -35 -142 -2 -34
-31 -38 -34 -5 -1 12 -3 55 -6 95 -3 39 -9 72 -13 72 -5 1 -12 -21 -16 -47
-16 -108 -27 -143 -45 -143 -8 0 -11 5 -7 11 3 6 1 15 -7 19 -10 7 -10 11 0
24 11 14 11 16 -4 16 -14 0 -15 3 -5 15 8 10 9 15 2 15 -6 0 -9 6 -6 14 6 14
-13 32 -23 22 -3 -3 -7 -22 -8 -43 -2 -39 -20 -93 -30 -93 -25 0 -41 67 -21
88 3 3 -1 16 -9 28 -12 18 -13 33 -6 64 11 49 -2 61 -23 20z m15 -195 c11 -23
8 -60 -7 -75 -14 -14 -59 34 -50 52 4 7 13 24 21 38 8 14 16 39 17 55 1 23 2
21 5 -10 2 -22 8 -49 14 -60z m289 35 c0 -5 -4 -10 -10 -10 -5 0 -10 5 -10 10
0 6 5 10 10 10 6 0 10 -4 10 -10z m-101 -76 c-16 -32 -116 -33 -150 -2 -16 14
-18 19 -7 15 12 -4 25 3 39 21 12 15 23 23 26 17 11 -31 29 -58 38 -58 6 0 19
17 30 37 18 36 19 36 28 14 5 -14 4 -31 -4 -44z m-49 16 c0 -5 -5 -10 -11 -10
-5 0 -7 5 -4 10 3 6 8 10 11 10 2 0 4 -4 4 -10z m-20 -62 c0 -4 -27 -6 -59 -5
-32 1 -57 5 -54 10 6 9 113 5 113 -5z"/>
<path d="M1703 2153 c-16 -6 -17 -33 -3 -33 11 0 26 28 19 34 -2 2 -10 1 -16
-1z"/>
<path d="M1025 2121 c-6 -11 42 -27 52 -17 8 8 3 12 -24 20 -12 4 -24 2 -28
-3z"/>
<path d="M1785 1861 c17 -3 29 -11 28 -16 -2 -12 16 -35 27 -35 11 0 -1 43
-14 52 -6 4 -24 7 -41 7 l-30 -1 30 -7z"/>
<path d="M1230 1851 c0 -9 44 -41 56 -41 4 0 -3 11 -16 25 -24 26 -40 32 -40
16z"/>
<path d="M1910 1842 c0 -5 -16 -25 -37 -45 -21 -22 -30 -37 -22 -37 16 0 89
67 89 81 0 5 -7 9 -15 9 -8 0 -15 -4 -15 -8z"/>
<path d="M1608 1818 c-26 -32 -11 -36 20 -5 18 18 22 27 12 27 -8 0 -23 -10
-32 -22z"/>
<path d="M1327 1725 c-29 -117 -33 -155 -17 -155 6 0 10 15 10 33 0 18 9 70
21 115 11 45 19 90 17 100 -2 9 -16 -32 -31 -93z"/>
<path d="M1486 1808 c-9 -29 -21 -235 -13 -228 6 6 29 241 24 247 -3 2 -7 -7
-11 -19z"/>
<path d="M1362 1733 c-23 -82 -21 -97 9 -88 16 5 19 1 19 -24 0 -17 4 -31 9
-31 19 0 21 20 7 54 -11 26 -19 34 -31 30 -18 -7 -15 13 12 90 15 45 15 46 5
46 -5 0 -18 -35 -30 -77z"/>
<path d="M960 1782 c0 -15 23 -30 42 -27 9 2 22 -3 29 -11 6 -8 16 -14 22 -14
6 0 19 -7 29 -17 15 -13 18 -14 18 -1 0 20 -39 54 -70 61 -14 3 -35 9 -47 12
-13 4 -23 3 -23 -3z"/>
<path d="M1408 1744 c-13 -13 -9 -44 7 -50 10 -4 15 -20 15 -46 0 -23 4 -37
10 -33 15 9 12 57 -4 80 -7 11 -15 28 -17 38 -2 11 -7 15 -11 11z"/>
<path d="M1847 1729 c-9 -6 -17 -18 -17 -27 0 -10 -16 -24 -38 -34 l-37 -17
50 2 50 2 6 40 c4 22 6 41 5 42 0 1 -9 -3 -19 -8z"/>
<path d="M2001 1671 l-23 -18 28 -22 c21 -17 29 -19 36 -9 4 8 2 18 -8 25 -10
7 -11 13 -5 18 13 7 15 25 4 25 -5 0 -19 -9 -32 -19z"/>
<path d="M1565 1580 c-9 -14 7 -18 124 -25 58 -3 113 -10 122 -16 10 -5 74 -7
146 -5 87 3 147 0 188 -9 35 -8 160 -16 295 -20 129 -4 240 -8 245 -9 6 0 10
6 10 14 0 13 -34 15 -238 17 -134 1 -254 7 -275 13 -20 6 -90 14 -155 17 -94
5 -121 3 -127 -7 -7 -11 -15 -11 -47 3 -21 9 -69 19 -108 22 -38 3 -93 7 -122
10 -29 3 -55 0 -58 -5z"/>
<path d="M300 1572 c0 -7 10 -14 23 -17 35 -8 598 -12 602 -4 9 14 -44 18
-332 25 -215 5 -293 4 -293 -4z"/>
<path d="M1419 1580 c0 -3 -2 -13 -4 -22 -4 -20 10 -24 21 -7 3 6 1 16 -5 22
-6 6 -11 9 -12 7z"/>
<path d="M1195 1543 c-11 -2 -31 -6 -44 -9 -37 -8 -13 -20 67 -33 62 -11 71
-15 61 -27 -7 -9 -9 -18 -3 -24 5 -5 14 1 21 16 10 22 9 26 -10 34 -27 11 -4
13 42 4 24 -5 30 -11 26 -24 -3 -10 -2 -20 2 -23 18 -10 173 -18 173 -8 0 5
-35 13 -78 16 -70 7 -78 9 -78 28 1 28 -40 38 -139 32 -56 -3 -67 -2 -38 4 24
4 46 10 49 14 8 7 -17 8 -51 0z"/>
<path d="M548 1502 c-10 -2 -18 -7 -18 -12 0 -8 285 -18 333 -12 43 6 32 17
-20 20 -94 5 -278 8 -295 4z"/>
<path d="M2013 1486 c-67 -18 -61 -26 18 -24 41 1 91 0 111 -4 42 -7 99 4 80
16 -7 4 -16 5 -21 2 -5 -3 -28 1 -51 9 -48 17 -77 17 -137 1z"/>
<path d="M1584 1461 c4 -5 -4 -7 -16 -3 -14 3 -19 2 -14 -6 10 -17 46 -15 46
3 0 8 -5 15 -11 15 -5 0 -8 -4 -5 -9z"/>
<path d="M943 1436 c-81 -17 -74 -26 23 -26 49 0 104 -4 122 -9 24 -7 32 -7
30 1 -4 10 -88 41 -88 32 0 -3 -8 -1 -17 4 -10 4 -41 3 -70 -2z"/>
<path d="M1350 1409 c0 -5 30 -9 67 -9 36 0 64 2 62 4 -10 8 -129 13 -129 5z"/>
<path d="M1594 1395 c-18 -14 -17 -14 12 -9 21 4 34 1 43 -10 15 -18 56 -21
66 -6 4 6 -5 10 -20 10 -14 0 -28 7 -31 15 -8 19 -45 19 -70 0z"/>
<path d="M2275 1360 c-8 -13 20 -24 36 -15 8 6 7 10 -2 16 -18 11 -26 11 -34
-1z"/>
<path d="M1813 1354 c3 -3 57 -8 119 -9 70 -3 103 -1 88 5 -29 9 -216 13 -207
4z"/>
<path d="M1570 1323 c0 -14 220 -27 234 -13 6 6 6 10 1 10 -6 0 -61 3 -122 7
-73 4 -113 2 -113 -4z"/>
<path d="M1905 1310 c4 -6 26 -10 49 -9 83 5 114 0 112 -18 0 -10 9 -20 24
-24 38 -11 173 -10 190 1 10 7 -10 10 -66 9 -81 -1 -126 11 -121 34 1 9 -26
13 -96 15 -70 2 -97 0 -92 -8z"/>
<path d="M2130 1311 c0 -7 27 -11 68 -11 78 0 68 16 -13 19 -33 1 -55 -2 -55
-8z"/>
<path d="M1095 1080 c0 -77 3 -140 8 -140 4 0 7 18 7 39 0 22 5 43 11 47 6 3
32 -14 58 -40 26 -25 51 -46 56 -46 5 0 -14 24 -44 54 l-52 53 53 47 c29 25
46 46 38 46 -8 0 -38 -23 -67 -52 l-53 -52 0 92 c0 51 -3 92 -7 92 -5 0 -8
-63 -8 -140z"/>
<path d="M550 1070 l0 -130 60 0 c73 0 104 14 131 57 17 27 20 45 17 90 -4 48
-10 61 -37 85 -28 25 -39 28 -101 28 l-70 0 0 -130z m133 109 c40 -21 57 -51
57 -106 0 -41 -5 -58 -25 -81 -22 -26 -33 -31 -85 -34 l-60 -3 0 118 0 117 46
0 c25 0 55 -5 67 -11z"/>
<path d="M820 1186 c0 -9 5 -16 10 -16 6 0 10 4 10 9 0 6 -4 13 -10 16 -5 3
-10 -1 -10 -9z"/>
<path d="M2420 1161 c0 -11 -8 -22 -17 -24 -17 -4 -17 -5 0 -6 15 -1 17 -12
17 -80 0 -98 5 -111 39 -110 25 0 25 0 4 9 -21 9 -23 16 -23 94 0 80 1 85 23
89 l22 4 -22 2 c-16 1 -23 7 -23 21 0 11 -4 20 -10 20 -5 0 -10 -9 -10 -19z"/>
<path d="M920 1130 c-39 -39 -22 -72 54 -100 46 -17 59 -46 30 -67 -28 -21
-61 -15 -83 14 -24 29 -39 26 -22 -5 12 -23 64 -44 89 -35 77 27 65 86 -23
115 -24 8 -41 20 -43 31 -9 48 69 67 90 22 11 -25 28 -34 28 -15 0 21 -49 60
-75 60 -14 0 -34 -9 -45 -20z"/>
<path d="M1331 1136 c-88 -49 -55 -198 44 -198 99 0 133 152 44 198 -34 17
-57 17 -88 0z m96 -28 c33 -31 32 -100 -2 -133 -51 -52 -125 -13 -125 66 0 79
73 117 127 67z"/>
<path d="M1566 1129 c-21 -17 -26 -18 -26 -5 0 9 -3 16 -7 16 -5 0 -6 -46 -3
-102 l4 -103 6 75 c7 89 15 108 45 116 63 16 87 -19 83 -119 -2 -37 0 -67 5
-67 9 0 9 161 -1 176 -9 14 -47 34 -65 34 -8 0 -26 -9 -41 -21z"/>
<path d="M1798 1139 c-10 -5 -18 -15 -18 -21 0 -9 3 -9 12 0 7 7 27 12 45 12
43 0 53 -21 53 -114 0 -44 4 -76 10 -76 6 0 10 33 10 80 0 73 -3 83 -25 105
-25 26 -58 31 -87 14z"/>
<path d="M1999 1122 c-78 -70 -14 -214 80 -181 30 11 68 56 56 67 -4 4 -11 -1
-16 -10 -28 -50 -70 -62 -107 -30 -12 9 -24 29 -28 45 l-6 27 82 0 83 0 -7 33
c-7 38 -48 77 -81 77 -14 0 -39 -13 -56 -28z m105 -14 c33 -47 23 -58 -54 -58
-78 0 -85 8 -49 54 27 34 81 36 103 4z"/>
<path d="M2218 1121 c-29 -26 -33 -36 -33 -79 0 -78 50 -121 117 -99 28 9 63
52 49 61 -4 3 -13 -6 -19 -19 -22 -49 -102 -42 -122 11 -26 68 6 134 65 134
25 0 38 -7 53 -27 11 -16 24 -25 27 -21 13 13 -52 68 -79 68 -14 0 -40 -13
-58 -29z"/>
<path d="M820 1040 c0 -60 4 -100 10 -100 6 0 10 40 10 100 0 60 -4 100 -10
100 -6 0 -10 -40 -10 -100z"/>
<path d="M1750 1040 c0 -55 4 -100 9 -100 5 0 11 37 13 83 3 89 0 117 -13 117
-5 0 -9 -45 -9 -100z"/>
</g>
</svg>
